<mxfile host="app.diagrams.net" modified="2023-02-27T07:04:46.823Z" agent="5.0 (Windows NT 10.0; Win64; x64) AppleWebKit/537.36 (KHTML, like Gecko) Chrome/110.0.0.0 Safari/537.36" etag="G-3Ck_XItVYxtZredETl" version="20.8.23" type="github">
  <diagram name="第 1 页" id="JSUvzp0A9ffYqXPfsxZi">
    <mxGraphModel dx="1158" dy="593" grid="1" gridSize="10" guides="1" tooltips="1" connect="1" arrows="1" fold="1" page="1" pageScale="1" pageWidth="827" pageHeight="1169" math="0" shadow="0">
      <root>
        <mxCell id="0" />
        <mxCell id="1" parent="0" />
      </root>
    </mxGraphModel>
  </diagram>
</mxfile>
